<svg xmlns="http://www.w3.org/2000/svg" viewBox="0 0 80 60" shape-rendering="crispEdges">
  <rect x="0" y="0" width="80" height="60" fill="#111827"/>
  <rect x="0" y="0" width="80" height="42" fill="#b89468"/>
  <rect x="0" y="0" width="80" height="2" fill="#a08258"/>
  <rect x="0" y="41" width="80" height="1" fill="#8a7048"/>
  <rect x="0" y="42" width="80" height="1" fill="#6e5418"/>
  <rect x="0" y="43" width="80" height="1" fill="#6e5418"/>
  <rect x="0" y="44" width="80" height="1" fill="#7a5e1e"/>
  <rect x="0" y="45" width="80" height="1" fill="#7a5e1e"/>
  <rect x="0" y="46" width="80" height="1" fill="#6e5418"/>
  <rect x="0" y="47" width="80" height="1" fill="#6e5418"/>
  <rect x="0" y="48" width="80" height="1" fill="#7a5e1e"/>
  <rect x="0" y="49" width="80" height="1" fill="#7a5e1e"/>
  <rect x="0" y="50" width="80" height="1" fill="#6e5418"/>
  <rect x="0" y="51" width="80" height="1" fill="#6e5418"/>
  <rect x="0" y="52" width="80" height="1" fill="#7a5e1e"/>
  <rect x="0" y="53" width="80" height="1" fill="#7a5e1e"/>
  <rect x="0" y="54" width="80" height="1" fill="#6e5418"/>
  <rect x="0" y="55" width="80" height="1" fill="#6e5418"/>
  <rect x="0" y="56" width="80" height="1" fill="#7a5e1e"/>
  <rect x="0" y="57" width="80" height="1" fill="#7a5e1e"/>
  <rect x="0" y="58" width="80" height="1" fill="#6e5418"/>
  <rect x="0" y="59" width="80" height="1" fill="#6e5418"/>
  <rect x="6" y="42" width="1" height="18" fill="#5a4010"/>
  <rect x="16" y="42" width="1" height="18" fill="#5a4010"/>
  <rect x="26" y="42" width="1" height="18" fill="#5a4010"/>
  <rect x="36" y="42" width="1" height="18" fill="#5a4010"/>
  <rect x="46" y="42" width="1" height="18" fill="#5a4010"/>
  <rect x="56" y="42" width="1" height="18" fill="#5a4010"/>
  <rect x="66" y="42" width="1" height="18" fill="#5a4010"/>
  <rect x="76" y="42" width="1" height="18" fill="#5a4010"/>
  <rect x="8" y="3" width="54" height="1" fill="#c0a060"/>
  <rect x="8" y="4" width="54" height="1" fill="#907040"/>
  <rect x="7" y="2" width="3" height="3" fill="#c8a858"/>
  <rect x="60" y="2" width="3" height="3" fill="#c8a858"/>
  <rect x="10" y="5" width="12" height="37" fill="#1e3e5e"/>
  <rect x="11" y="5" width="1" height="37" fill="#2a5070"/>
  <rect x="14" y="5" width="1" height="37" fill="#2a5070"/>
  <rect x="18" y="5" width="1" height="37" fill="#2a5070"/>
  <rect x="12" y="5" width="1" height="37" fill="#162e48"/>
  <rect x="16" y="5" width="1" height="37" fill="#162e48"/>
  <rect x="20" y="5" width="1" height="37" fill="#162e48"/>
  <rect x="19" y="36" width="3" height="6" fill="#2a5070"/>
  <rect x="20" y="38" width="2" height="4" fill="#162e48"/>
  <rect x="48" y="5" width="12" height="37" fill="#1e3e5e"/>
  <rect x="49" y="5" width="1" height="37" fill="#2a5070"/>
  <rect x="52" y="5" width="1" height="37" fill="#2a5070"/>
  <rect x="56" y="5" width="1" height="37" fill="#2a5070"/>
  <rect x="50" y="5" width="1" height="37" fill="#162e48"/>
  <rect x="54" y="5" width="1" height="37" fill="#162e48"/>
  <rect x="58" y="5" width="1" height="37" fill="#162e48"/>
  <rect x="48" y="36" width="3" height="6" fill="#2a5070"/>
  <rect x="49" y="38" width="2" height="4" fill="#162e48"/>
  <rect x="22" y="5" width="26" height="32" fill="#3a2818"/>
  <rect x="24" y="7" width="22" height="28" fill="#7ab0d4"/>
  <rect x="25" y="8" width="9" height="10" fill="#8ec0e0"/>
  <rect x="37" y="8" width="9" height="10" fill="#8ec0e0"/>
  <rect x="25" y="20" width="9" height="14" fill="#6898b8"/>
  <rect x="37" y="20" width="9" height="14" fill="#6898b8"/>
  <rect x="34" y="7" width="2" height="28" fill="#3a2818"/>
  <rect x="24" y="19" width="22" height="2" fill="#3a2818"/>
  <rect x="21" y="36" width="28" height="3" fill="#4a3820"/>
  <rect x="22" y="37" width="26" height="2" fill="#6a5030"/>
  <rect x="46" y="7" width="2" height="28" fill="#c8a87a"/>
  <rect x="22" y="35" width="22" height="2" fill="#c0a070"/>
  <rect x="21" y="32" width="4" height="21" fill="#5c1e0e"/>
  <rect x="22" y="33" width="2" height="19" fill="#782a18"/>
  <rect x="22" y="37" width="1" height="2" fill="#8a3020"/>
  <rect x="22" y="42" width="1" height="2" fill="#8a3020"/>
  <rect x="21" y="44" width="14" height="2" fill="#501808"/>
  <rect x="22" y="44" width="13" height="1" fill="#6a2010"/>
  <rect x="24" y="46" width="11" height="8" fill="#702818"/>
  <rect x="25" y="47" width="9" height="6" fill="#8a3020"/>
  <rect x="25" y="47" width="9" height="1" fill="#9a3828"/>
  <rect x="25" y="51" width="9" height="1" fill="#602010"/>
  <rect x="24" y="54" width="11" height="2" fill="#5a2010"/>
  <rect x="24" y="55" width="2" height="3" fill="#3a1008"/>
  <rect x="32" y="55" width="2" height="3" fill="#3a1008"/>
  <rect x="21" y="57" width="12" height="3" fill="rgba(0,0,0,0.15)"/>
  <rect x="44" y="29" width="29" height="15" fill="#3e2010"/>
  <rect x="45" y="30" width="27" height="13" fill="#6a3818"/>
  <rect x="46" y="31" width="25" height="11" fill="#5a3010"/>
  <rect x="47" y="32" width="10" height="9" fill="#7a4020"/>
  <rect x="59" y="32" width="10" height="9" fill="#7a4020"/>
  <rect x="48" y="33" width="8" height="7" fill="#8a4c28"/>
  <rect x="60" y="33" width="8" height="7" fill="#8a4c28"/>
  <rect x="47" y="32" width="1" height="9" fill="#4a2810"/>
  <rect x="59" y="32" width="1" height="9" fill="#4a2810"/>
  <rect x="44" y="43" width="29" height="14" fill="#4a3018"/>
  <rect x="45" y="44" width="27" height="12" fill="#5a3c20"/>
  <rect x="45" y="39" width="27" height="18" fill="#ddd5c0"/>
  <rect x="46" y="40" width="25" height="16" fill="#ede6d4"/>
  <rect x="46" y="43" width="25" height="1" fill="#c8c0a8"/>
  <rect x="46" y="47" width="25" height="1" fill="#c8c0a8"/>
  <rect x="46" y="51" width="25" height="1" fill="#c8c0a8"/>
  <rect x="45" y="40" width="1" height="17" fill="#c0b898"/>
  <rect x="71" y="40" width="1" height="17" fill="#c0b898"/>
  <rect x="46" y="38" width="11" height="7" fill="#f0ece2"/>
  <rect x="59" y="38" width="11" height="7" fill="#f0ece2"/>
  <rect x="47" y="39" width="9" height="5" fill="#ffffff"/>
  <rect x="60" y="39" width="9" height="5" fill="#ffffff"/>
  <rect x="46" y="54" width="2" height="3" fill="#2e1808"/>
  <rect x="70" y="54" width="2" height="3" fill="#2e1808"/>
  <rect x="45" y="57" width="27" height="3" fill="rgba(0,0,0,0.18)"/>
</svg>
